#N canvas 415 207 814 507.094 10;
#N canvas 0 0 450 300 (subpatch) 0;
#X array smr 24 float 6 #fcfcfc black;
#X coords 0 2 24 0 200 60 1;
#X restore 213 30 graph;
#X obj 346 31 cnv 15 66 58 empty empty rec 20 12 0 12 -258049 -1 0
;
#X obj 280 31 cnv 15 65 58 empty empty mute 20 12 0 12 -262081 -1 0
;
#X obj 214 31 cnv 15 65 58 empty empty solo 20 12 0 12 -4033 -1 0;
#N canvas 235 29 1195 837.094 notein 0;
#X obj 478 265 expr $f1>=0 && $f1<=127;
#X obj 33 47 pack f f f;
#X obj 64 113 outlet;
#X obj 33 25 notein;
#X msg 33 68 \$3 \$1 \$2;
#X msg 33 232 1;
#X msg 60 232 2;
#X msg 87 232 3;
#X msg 114 232 4;
#X obj 87 284 s ch;
#X obj 113 25 loadbang;
#X msg 156 232 0;
#X msg 183 232 1;
#X msg 210 232 2;
#X obj 299 153 outlet;
#X obj 35 336 r ch;
#X obj 68 336 r sn;
#X obj 68 358 t b f;
#X obj 35 442 route 1 2;
#X msg 35 464 1;
#X msg 60 464 2;
#X floatatom 86 511 5 0 0 0 - - chan, f 5;
#X text 32 319 calculate the output channel for the FADER CTRL settings
;
#X text 153 206 send/plugin number;
#X text 22 207 FADER CTRL selection;
#X text 77 135 FADER CTRL section;
#X obj 299 103 spigot;
#X obj 354 47 < 24;
#X obj 354 69 t f f;
#X obj 381 92 == 0;
#X obj 318 127 spigot;
#X obj 299 20 t a a f;
#X text 296 174 solo/mute/rec buttons;
#X obj 446 103 spigot;
#X obj 501 69 t f f;
#X obj 528 92 == 0;
#X obj 465 127 spigot;
#X obj 446 20 t a a f;
#X obj 501 47 < 64;
#X text 445 359 other pads (upper 5x8);
#X obj 585 20 unpack f f;
#X obj 585 103 spigot;
#X obj 642 47 > 0;
#X text 585 194 other buttons;
#X obj 585 264 spigot;
#X obj 618 240 tgl 15 0 empty debug empty 17 7 0 10 -262144 -1 -1 1
1;
#X obj 446 341 noteout;
#X obj 585 176 noteout;
#X obj 33 89 route 33 17;
#X obj 446 221 + 0;
#X obj 277 247 tgl 15 0 shift empty empty 17 7 0 10 -262144 -1 -1 0
1;
#X obj 345 335 r shift;
#X obj 345 357 * 3;
#X obj 330 403 +;
#X obj 330 425 s sn;
#X obj 277 225 > 0;
#X text 265 199 SHIFT status;
#X obj 35 381 pack f f;
#X obj 86 465 unpack f f;
#X obj 86 489 expr 6*($f1-3)+$f2+3;
#X obj 263 363 r shift;
#X obj 248 387 f;
#X obj 33 254 t f b;
#X obj 248 432 s sh;
#X msg 210 387 0;
#X obj 87 254 t f b;
#N canvas 527 184 450 427.094 shifted-note 0;
#X obj 16 17 inlet;
#X obj 197 48 r shift;
#X obj 92 94 t f f;
#X obj 92 116 == 0;
#X obj 16 148 spigot 1;
#X obj 91 148 spigot;
#X obj 16 170 outlet;
#X msg 91 237 \$1 127;
#X obj 91 259 s switch;
#X obj 91 194 mod 8;
#X obj 91 216 + 48;
#X obj 92 72 expr $f1<64 && $f2;
#X obj 16 39 t a f a;
#X obj 92 28 unpack f f;
#X obj 91 170 spigot;
#X obj 149 50 > 0;
#X connect 0 0 12 0;
#X connect 1 0 11 1;
#X connect 2 0 3 0;
#X connect 2 1 5 1;
#X connect 3 0 4 1;
#X connect 4 0 6 0;
#X connect 5 0 14 0;
#X connect 7 0 8 0;
#X connect 9 0 10 0;
#X connect 10 0 7 0;
#X connect 11 0 2 0;
#X connect 12 0 4 0;
#X connect 12 1 5 0;
#X connect 12 2 13 0;
#X connect 13 0 11 0;
#X connect 13 1 15 0;
#X connect 14 0 9 0;
#X connect 15 0 14 1;
#X restore 247 278 pd shifted-note;
#X obj 446 176 unpack f f f;
#X obj 446 311 pack f f f;
#X msg 446 154 \$1 \$2 1;
#X obj 585 289 print A PD->DAW;
#X msg 585 154 \$1 127 17;
#X obj 585 125 t a f;
#X obj 585 359 moses 82;
#X obj 585 403 s reset-faders;
#X obj 33 154 route 68 69 70 71 87 88 89 86 98;
#X text 351 199 SELECT status;
#X obj 115 338 r select;
#X obj 134 390 == 0;
#X obj 35 411 spigot 1;
#X obj 115 418 spigot;
#X obj 115 360 t b f f;
#X msg 115 440 16;
#X obj 362 219 t b f;
#X obj 362 241 spigot;
#X obj 362 263 tgl 15 0 empty empty empty 17 7 0 10 -262144 -1 -1 0
1;
#X obj 585 381 t f;
#X floatatom 35 358 5 0 0 0 - - -, f 5;
#X obj 248 412 tgl 15 0 empty empty empty 17 7 0 10 -262144 -1 -1 0
1;
#X obj 504 226 s note-light;
#X obj 461 198 r offs;
#X obj 446 243 t f f;
#X obj 446 286 spigot;
#X floatatom 446 265 5 0 0 0 - - -, f 5;
#X obj 389 408 sel 1 0;
#X obj 438 430 r sh;
#X obj 423 452 f;
#X obj 389 430 t b b;
#X obj 408 476 f;
#X obj 404 500 r shift;
#X obj 389 522 f;
#X obj 362 283 t f f;
#X obj 362 305 s select;
#X text 369 390 determine SHIFT+SELECT;
#X text 431 478 this remembers the previous sh status;
#X connect 0 0 92 1;
#X connect 1 0 4 0;
#X connect 3 0 1 0;
#X connect 3 1 1 1;
#X connect 3 2 1 2;
#X connect 4 0 48 0;
#X connect 5 0 62 0;
#X connect 6 0 62 0;
#X connect 7 0 65 0;
#X connect 8 0 62 0;
#X connect 10 0 5 0;
#X connect 10 0 11 0;
#X connect 11 0 53 0;
#X connect 12 0 53 0;
#X connect 13 0 53 0;
#X connect 15 0 87 0;
#X connect 16 0 17 0;
#X connect 17 0 57 0;
#X connect 17 1 57 1;
#X connect 18 0 19 0;
#X connect 18 1 20 0;
#X connect 18 2 58 0;
#X connect 19 0 21 0;
#X connect 20 0 21 0;
#X connect 26 0 14 0;
#X connect 27 0 28 0;
#X connect 28 0 26 1;
#X connect 28 1 29 0;
#X connect 29 0 30 1;
#X connect 30 0 37 0;
#X connect 31 0 26 0;
#X connect 31 1 30 0;
#X connect 31 2 27 0;
#X connect 33 0 69 0;
#X connect 34 0 33 1;
#X connect 34 1 35 0;
#X connect 35 0 36 1;
#X connect 36 0 40 0;
#X connect 37 0 33 0;
#X connect 37 1 36 0;
#X connect 37 2 38 0;
#X connect 38 0 34 0;
#X connect 40 0 41 0;
#X connect 40 1 42 0;
#X connect 41 0 72 0;
#X connect 42 0 41 1;
#X connect 44 0 70 0;
#X connect 45 0 44 1;
#X connect 48 0 75 0;
#X connect 48 1 2 0;
#X connect 49 0 91 0;
#X connect 51 0 52 0;
#X connect 52 0 53 1;
#X connect 53 0 54 0;
#X connect 55 0 50 0;
#X connect 57 0 79 0;
#X connect 58 0 59 0;
#X connect 58 1 59 1;
#X connect 59 0 21 0;
#X connect 60 0 61 1;
#X connect 61 0 88 0;
#X connect 62 0 9 0;
#X connect 62 1 61 0;
#X connect 64 0 88 0;
#X connect 65 0 9 0;
#X connect 65 1 64 0;
#X connect 66 0 31 0;
#X connect 67 0 49 0;
#X connect 67 1 68 1;
#X connect 67 2 68 2;
#X connect 68 0 44 0;
#X connect 68 0 46 0;
#X connect 69 0 67 0;
#X connect 69 0 89 0;
#X connect 71 0 47 0;
#X connect 71 0 44 0;
#X connect 72 0 71 0;
#X connect 72 1 73 0;
#X connect 73 0 86 0;
#X connect 75 0 5 0;
#X connect 75 1 6 0;
#X connect 75 2 7 0;
#X connect 75 3 8 0;
#X connect 75 4 11 0;
#X connect 75 5 12 0;
#X connect 75 6 13 0;
#X connect 75 7 83 0;
#X connect 75 8 55 0;
#X connect 75 9 66 0;
#X connect 77 0 81 0;
#X connect 78 0 79 1;
#X connect 79 0 18 0;
#X connect 80 0 82 0;
#X connect 81 0 80 0;
#X connect 81 0 57 0;
#X connect 81 1 78 0;
#X connect 81 2 80 1;
#X connect 82 0 21 0;
#X connect 83 0 84 0;
#X connect 83 1 84 1;
#X connect 84 0 85 0;
#X connect 85 0 101 0;
#X connect 86 0 74 0;
#X connect 87 0 57 0;
#X connect 88 0 63 0;
#X connect 90 0 49 1;
#X connect 91 0 93 0;
#X connect 91 1 0 0;
#X connect 92 0 68 0;
#X connect 93 0 92 0;
#X connect 94 0 97 0;
#X connect 94 1 98 0;
#X connect 95 0 96 1;
#X connect 96 0 98 1;
#X connect 97 0 100 0;
#X connect 97 1 96 0;
#X connect 98 0 88 0;
#X connect 99 0 100 1;
#X connect 100 0 88 0;
#X connect 101 0 102 0;
#X connect 101 1 94 0;
#X restore 17 25 pd notein;
#N canvas 474 29 810 853.094 ctlin 0;
#X obj 20 31 pack f f f;
#X obj 20 9 ctlin;
#X msg 20 53 \$3 \$2 \$1;
#X obj 51 195 moses 48;
#X obj 205 326 + 16;
#X msg 78 353 17;
#X obj 51 119 unpack f f;
#X obj 205 305 r chan;
#X obj 21 374 pack f f f;
#X obj 148 348 pack f f f;
#X msg 93 407 \$2 \$1 \$3;
#X obj 93 429 ctlout;
#X obj 78 332 loadbang;
#X obj 262 158 spigot;
#X obj 295 134 tgl 15 0 empty debug empty 17 7 0 10 -262144 -1 -1 1
1;
#X obj 96 308 +;
#X obj 111 260 r sh;
#X obj 111 282 * 10;
#X obj 20 75 route 33;
#X msg 188 23 \$2 \$3 \$1;
#X obj 188 45 unpack f f f;
#X obj 257 92 expr $f1>16 && $f1<=32;
#X obj 188 117 spigot;
#X text 268 22 messages from the DAW;
#X text 19 99 messages from APCmini;
#X obj 300 407 spigot;
#X obj 333 383 tgl 15 0 empty debug empty 17 7 0 10 -262144 -1 -1 1
1;
#X obj 95 31 r switch;
#N canvas 375 219 853 414.094 faders 0;
#X obj 12 11 inlet;
#X obj 12 196 route 48 49 50 51 52 53 54 55 56;
#X obj 12 228 s f1;
#X obj 45 228 s f2;
#X obj 78 228 s f3;
#X obj 111 228 s f4;
#X obj 144 228 s f5;
#X obj 177 228 s f6;
#X obj 210 228 s f7;
#X obj 243 228 s f8;
#X text 65 12 fader feedback in the main patch;
#X obj 12 127 spigot;
#X obj 276 228 s master;
#X obj 13 292 s f9;
#X obj 46 292 s f10;
#X obj 79 292 s f11;
#X obj 112 292 s f12;
#X obj 145 292 s f13;
#X obj 178 292 s f14;
#X obj 211 292 s f15;
#X obj 244 292 s f16;
#X obj 12 33 t a a;
#X obj 39 58 unpack f f f;
#X obj 414 56 r chan;
#X obj 12 149 unpack f f f;
#X obj 12 171 pack f f;
#X obj 226 80 - 16;
#N canvas 274 170 754 555.094 reset-faders 0;
#X obj 18 115 r chan;
#X obj 224 153 r reset-faders;
#X obj 224 251 spigot;
#X obj 257 224 <= 8;
#X obj 224 180 sel 64 65 66 67;
#X obj 289 251 spigot;
#X obj 322 224 > 8;
#X text 297 203 DEVICE/SELECT change;
#X text 152 203 VOLUME/PAN/SEND change;
#X text 222 128 current bank/track change;
#X text 24 162 FADER CTRL change;
#X obj 18 286 outlet;
#X obj 18 260 f;
#X msg 18 209 bang;
#X obj 18 137 t b f f f;
#X text 16 12 This resets the Pd faders whenever the FADER CTRL configuration
or the current bank/track changes \, so that the fader display is in
a coherent state. (This is necessary because Ardour will only update
fader values that actually changed.) Note that this subpatch only outputs
the channel number to recall if we detect any changes \, the real magic
happens inside the fader-store subpatch.;
#X obj 50 231 r reset-all-faders;
#X connect 0 0 14 0;
#X connect 1 0 4 0;
#X connect 2 0 13 0;
#X connect 3 0 2 1;
#X connect 4 0 2 0;
#X connect 4 1 2 0;
#X connect 4 2 5 0;
#X connect 4 3 5 0;
#X connect 5 0 13 0;
#X connect 6 0 5 1;
#X connect 12 0 11 0;
#X connect 13 0 12 0;
#X connect 14 0 13 0;
#X connect 14 1 12 1;
#X connect 14 2 6 0;
#X connect 14 3 3 0;
#X connect 16 0 12 0;
#X restore 225 132 pd reset-faders;
#X obj 13 260 route 58 59 60 61 62 63 64 65 66;
#X obj 283 292 s master2;
#X obj 39 102 expr $f1>=48 && $f1<=66 && $f2==$f3 && ($f3<9 || $f1
% 10 != 6), f 63;
#N canvas 154 187 1246 561.094 fader-store 0;
#X obj 16 62 r f1;
#X obj 49 62 r f2;
#X obj 82 62 r f3;
#X obj 115 62 r f4;
#X obj 148 62 r f5;
#X obj 181 62 r f6;
#X obj 214 62 r f7;
#X obj 247 62 r f8;
#X obj 280 62 r master;
#X obj 16 127 r f9;
#X obj 49 127 r f10;
#X obj 88 127 r f11;
#X obj 127 127 r f12;
#X obj 166 127 r f13;
#X obj 205 127 r f14;
#X obj 244 127 r f15;
#X obj 283 127 r f16;
#X obj 322 127 r master2;
#X msg 16 84 0 \$1;
#X msg 49 84 1 \$1;
#X msg 82 84 2 \$1;
#X msg 115 84 3 \$1;
#X msg 148 84 4 \$1;
#X msg 181 84 5 \$1;
#X msg 213 84 6 \$1;
#X msg 247 84 7 \$1;
#X msg 280 84 8 \$1;
#X msg 16 149 9 \$1;
#X msg 49 149 10 \$1;
#X msg 88 149 11 \$1;
#X msg 127 149 12 \$1;
#X msg 166 149 13 \$1;
#X msg 205 149 14 \$1;
#X msg 244 149 15 \$1;
#X msg 283 149 16 \$1;
#X msg 322 149 17 \$1;
#X obj 16 225 unpack f f;
#X obj 100 225 r chan;
#X obj 100 247 - 1;
#X obj 100 269 * 18;
#X obj 16 322 +;
#X obj 16 344 pack f f;
#X floatatom 100 291 5 0 0 0 - - -, f 5;
#N canvas 0 0 450 300 (subpatch) 0;
#X array fader-store 288 float 22 #fcfcfc black;
#X coords 0 127 288 0 576 140 1;
#X restore 175 297 graph;
#X obj 16 366 s fader-store;
#X floatatom 487 80 5 1 16 0 - - -, f 5;
#X obj 487 101 - 1;
#X obj 487 123 * 18;
#X obj 487 234 +;
#X obj 487 145 t b b f;
#X msg 487 167 18;
#X msg 511 167 0;
#X obj 487 189 until;
#X obj 487 211 f;
#X obj 523 211 + 1;
#X obj 568 57 t f f;
#X obj 568 79 tabread fader-store;
#X obj 568 127 pack f f;
#X msg 568 149 \$2 \$1;
#X obj 568 208 s f1;
#X obj 601 208 s f2;
#X obj 634 208 s f3;
#X obj 667 208 s f4;
#X obj 700 208 s f5;
#X obj 733 208 s f6;
#X obj 766 208 s f7;
#X obj 799 208 s f8;
#X obj 832 208 s master;
#X obj 569 272 s f9;
#X obj 602 272 s f10;
#X obj 635 272 s f11;
#X obj 668 272 s f12;
#X obj 701 272 s f13;
#X obj 734 272 s f14;
#X obj 767 272 s f15;
#X obj 800 272 s f16;
#X obj 839 272 s master2;
#X obj 568 176 route 0 1 2 3 4 5 6 7 8;
#X obj 569 240 route 9 10 11 12 13 14 15 16 17;
#X obj 613 104 mod 18;
#X obj 487 54 inlet;
#X text 15 28 internal storage for the fader values on each MIDI channel
;
#X text 485 32 recall a bank \, inlet is MIDI channel to recall;
#N canvas 581 300 524 485.094 reset-store 0;
#X obj 22 19 bng 15 250 50 0 empty reset-store empty 17 7 0 10 -262144
-1 -1;
#X obj 49 89 t f b;
#X msg 76 112 0;
#X obj 49 139 until;
#X obj 49 161 f;
#X obj 85 161 + 1;
#X msg 49 63 16;
#X obj 49 183 * 18;
#X msg 49 205 \$1 0 0 0 0 0 0 0 0 0 0 0 0 0 0 0 0 0 0;
#X obj 49 227 s fader-store;
#X obj 22 39 t b b;
#X obj 22 251 s reset-all-faders;
#X connect 0 0 10 0;
#X connect 1 0 3 0;
#X connect 1 1 2 0;
#X connect 2 0 4 1;
#X connect 3 0 4 0;
#X connect 4 0 5 0;
#X connect 4 0 7 0;
#X connect 5 0 4 1;
#X connect 6 0 1 0;
#X connect 7 0 8 0;
#X connect 8 0 9 0;
#X connect 10 0 11 0;
#X connect 10 1 6 0;
#X restore 16 402 pd reset-store;
#X obj 785 19 inlet;
#X obj 785 66 moses 58;
#X obj 785 88 - 48;
#X obj 830 88 - 49;
#X obj 785 41 unpack f f f;
#X obj 875 95 * 18;
#X obj 785 121 +;
#X obj 785 147 pack f f;
#X obj 785 169 s fader-store;
#X text 829 18 direct feedback from DAW (all channels);
#X obj 875 73 - 17;
#X text 173 195 NOTE: We only keep the different MIDI channels here
\, not a complete record for all the different banks. We can't do any
better since we don't know anything about the layout of the banks and
tracks in Ardour \, so we rely on Ardour's feedback in case of bank
changes., f 48;
#X connect 0 0 18 0;
#X connect 1 0 19 0;
#X connect 2 0 20 0;
#X connect 3 0 21 0;
#X connect 4 0 22 0;
#X connect 5 0 23 0;
#X connect 6 0 24 0;
#X connect 7 0 25 0;
#X connect 8 0 26 0;
#X connect 9 0 27 0;
#X connect 10 0 28 0;
#X connect 11 0 29 0;
#X connect 12 0 30 0;
#X connect 13 0 31 0;
#X connect 14 0 32 0;
#X connect 15 0 33 0;
#X connect 16 0 34 0;
#X connect 17 0 35 0;
#X connect 18 0 36 0;
#X connect 19 0 36 0;
#X connect 20 0 36 0;
#X connect 21 0 36 0;
#X connect 22 0 36 0;
#X connect 23 0 36 0;
#X connect 24 0 36 0;
#X connect 25 0 36 0;
#X connect 26 0 36 0;
#X connect 27 0 36 0;
#X connect 28 0 36 0;
#X connect 29 0 36 0;
#X connect 30 0 36 0;
#X connect 31 0 36 0;
#X connect 32 0 36 0;
#X connect 33 0 36 0;
#X connect 34 0 36 0;
#X connect 35 0 36 0;
#X connect 36 0 40 0;
#X connect 36 1 41 1;
#X connect 37 0 38 0;
#X connect 38 0 39 0;
#X connect 39 0 42 0;
#X connect 40 0 41 0;
#X connect 41 0 44 0;
#X connect 42 0 40 1;
#X connect 45 0 46 0;
#X connect 46 0 47 0;
#X connect 47 0 49 0;
#X connect 48 0 55 0;
#X connect 49 0 50 0;
#X connect 49 1 51 0;
#X connect 49 2 48 1;
#X connect 50 0 52 0;
#X connect 51 0 53 1;
#X connect 52 0 53 0;
#X connect 53 0 54 0;
#X connect 53 0 48 0;
#X connect 54 0 53 1;
#X connect 55 0 56 0;
#X connect 55 1 79 0;
#X connect 56 0 57 0;
#X connect 57 0 58 0;
#X connect 58 0 77 0;
#X connect 77 0 59 0;
#X connect 77 1 60 0;
#X connect 77 2 61 0;
#X connect 77 3 62 0;
#X connect 77 4 63 0;
#X connect 77 5 64 0;
#X connect 77 6 65 0;
#X connect 77 7 66 0;
#X connect 77 8 67 0;
#X connect 77 9 78 0;
#X connect 78 0 68 0;
#X connect 78 1 69 0;
#X connect 78 2 70 0;
#X connect 78 3 71 0;
#X connect 78 4 72 0;
#X connect 78 5 73 0;
#X connect 78 6 74 0;
#X connect 78 7 75 0;
#X connect 78 8 76 0;
#X connect 79 0 57 1;
#X connect 80 0 45 0;
#X connect 84 0 88 0;
#X connect 85 0 86 0;
#X connect 85 1 87 0;
#X connect 86 0 90 0;
#X connect 87 0 90 0;
#X connect 88 0 85 0;
#X connect 88 1 91 1;
#X connect 88 2 94 0;
#X connect 89 0 90 1;
#X connect 90 0 91 0;
#X connect 91 0 92 0;
#X connect 94 0 89 0;
#X restore 225 159 pd fader-store;
#X obj 306 31 inlet;
#X text 341 31 -> fader store;
#X connect 0 0 21 0;
#X connect 1 0 2 0;
#X connect 1 1 3 0;
#X connect 1 2 4 0;
#X connect 1 3 5 0;
#X connect 1 4 6 0;
#X connect 1 5 7 0;
#X connect 1 6 8 0;
#X connect 1 7 9 0;
#X connect 1 8 12 0;
#X connect 1 9 28 0;
#X connect 11 0 24 0;
#X connect 21 0 11 0;
#X connect 21 1 22 0;
#X connect 22 0 30 0;
#X connect 22 2 26 0;
#X connect 23 0 30 2;
#X connect 24 0 25 0;
#X connect 24 1 25 1;
#X connect 25 0 1 0;
#X connect 26 0 30 1;
#X connect 27 0 31 0;
#X connect 28 0 13 0;
#X connect 28 1 14 0;
#X connect 28 2 15 0;
#X connect 28 3 16 0;
#X connect 28 4 17 0;
#X connect 28 5 18 0;
#X connect 28 6 19 0;
#X connect 28 7 20 0;
#X connect 28 8 29 0;
#X connect 30 0 11 1;
#X connect 32 0 31 1;
#X restore 188 201 pd faders;
#X obj 257 69 t f f;
#X obj 188 92 pack f f f;
#X obj 262 183 print B DAW->PD;
#X obj 300 429 print C PD->DAW;
#X text 27 143 Pass through controllers < 48 and > 56 XXXFIXME: Do
we really need this?, f 25;
#X text 149 282 2nd bank of controllers;
#X text 249 331 map controllers to the proper channel depending on
FADER CTRL settings, f 36;
#X obj 96 216 moses 57;
#X obj 188 139 t a a;
#N canvas 336 251 696 529.094 fix9 0;
#X obj 17 21 inlet;
#X obj 17 270 outlet;
#X obj 17 81 unpack f f;
#X floatatom 74 177 5 0 0 0 - - -, f 5;
#X obj 17 201 pack f f;
#X obj 74 128 moses 25;
#X msg 119 151 17;
#X obj 17 45 route 56 66;
#X obj 17 243 list prepend 56;
#X obj 154 222 spigot;
#X msg 154 196 8 \$1;
#X obj 154 244 s fader-store;
#X obj 17 103 t f f;
#X obj 74 105 t f f;
#X obj 187 196 >= 25;
#X text 135 26 Fix up the MIDI channel of the master fader on the fly
in DEVICE/SELECT mode (becomes VOLUME). Note that the channels have
already been translated to the 2nd MIDI out here \, so 25 = 9 and 17
= 1 Also note that in this case we have to write directly to the fader-store
\, since the control change is on the "wrong" MIDI channel., f 37
;
#X connect 0 0 7 0;
#X connect 2 0 12 0;
#X connect 2 1 13 0;
#X connect 3 0 4 1;
#X connect 4 0 8 0;
#X connect 5 0 3 0;
#X connect 5 1 6 0;
#X connect 6 0 3 0;
#X connect 7 0 2 0;
#X connect 7 1 2 0;
#X connect 7 2 1 0;
#X connect 8 0 1 0;
#X connect 9 0 11 0;
#X connect 10 0 9 0;
#X connect 12 0 4 0;
#X connect 12 1 10 0;
#X connect 13 0 5 0;
#X connect 13 1 14 0;
#X connect 14 0 9 1;
#X restore 148 369 pd fix9;
#X connect 0 0 2 0;
#X connect 1 0 0 0;
#X connect 1 1 0 1;
#X connect 1 2 0 2;
#X connect 2 0 18 0;
#X connect 3 0 8 0;
#X connect 3 1 36 0;
#X connect 4 0 9 2;
#X connect 5 0 8 2;
#X connect 6 0 3 0;
#X connect 6 1 8 1;
#X connect 6 1 9 1;
#X connect 7 0 4 0;
#X connect 8 0 10 0;
#X connect 8 0 28 0;
#X connect 8 0 25 0;
#X connect 9 0 38 0;
#X connect 10 0 11 0;
#X connect 12 0 5 0;
#X connect 13 0 31 0;
#X connect 14 0 13 1;
#X connect 15 0 9 0;
#X connect 16 0 17 0;
#X connect 17 0 15 1;
#X connect 18 0 6 0;
#X connect 18 1 19 0;
#X connect 19 0 20 0;
#X connect 20 0 30 0;
#X connect 20 1 30 1;
#X connect 20 2 29 0;
#X connect 21 0 22 1;
#X connect 22 0 13 0;
#X connect 22 0 37 0;
#X connect 25 0 32 0;
#X connect 26 0 25 1;
#X connect 27 0 6 0;
#X connect 29 0 21 0;
#X connect 29 1 30 2;
#X connect 30 0 22 0;
#X connect 36 0 15 0;
#X connect 36 1 8 0;
#X connect 37 0 28 0;
#X connect 37 1 28 1;
#X connect 38 0 10 0;
#X connect 38 0 28 0;
#X connect 38 0 25 0;
#X restore 85 25 pd ctlin;
#N canvas 613 61 780 772.094 daw-feedback 0;
#X obj 23 20 inlet;
#X obj 23 64 unpack f f;
#X obj 23 113 moses 8;
#X obj 62 138 moses 16;
#X obj 107 163 moses 24;
#X obj 80 89 > 0;
#X obj 23 220 pack f f;
#X obj 65 296 pack f f;
#X obj 80 111 t f f f;
#X obj 107 220 pack f f;
#X obj 152 197 * 3;
#X obj 110 273 * 5;
#X msg 65 348 144 \, \$1 \, \$2;
#X text 172 146 0-23 are the 3 rows at the bottom \, which we use as
solo \, mute and rec \; ignore everything else, f 38;
#X text 180 198 3 = red (rec);
#X text 140 273 5 = amber (mute);
#X text 29 194 1 = green (solo);
#X obj 65 318 t a a;
#X obj 168 370 s smr;
#X obj 184 72 spigot;
#X obj 217 48 tgl 15 0 empty debug empty 17 7 0 10 -262144 -1 -1 1
1;
#X text 93 17 Feedback from DAW (only note input);
#X obj 65 370 midiout 3;
#X obj 184 97 print D DAW->PD;
#X obj 168 305 unpack f f;
#X obj 225 327 > 0;
#X obj 168 348 pack f f;
#X connect 0 0 1 0;
#X connect 0 0 19 0;
#X connect 1 0 2 0;
#X connect 1 1 5 0;
#X connect 2 0 6 0;
#X connect 2 1 3 0;
#X connect 3 0 7 0;
#X connect 3 1 4 0;
#X connect 4 0 9 0;
#X connect 5 0 8 0;
#X connect 6 0 17 0;
#X connect 7 0 17 0;
#X connect 8 0 6 1;
#X connect 8 1 11 0;
#X connect 8 2 10 0;
#X connect 9 0 17 0;
#X connect 10 0 9 1;
#X connect 11 0 7 1;
#X connect 12 0 22 0;
#X connect 17 0 12 0;
#X connect 17 1 24 0;
#X connect 19 0 23 0;
#X connect 20 0 19 1;
#X connect 24 0 26 0;
#X connect 24 1 25 0;
#X connect 25 0 26 1;
#X connect 26 0 18 0;
#X restore 17 92 pd daw-feedback;
#N canvas 333 106 1070 737.094 internal-feedback 0;
#X obj 16 11 r ch;
#X floatatom 16 33 5 0 0 0 - - -, f 5;
#X obj 16 54 t f b;
#X msg 88 162 144 \, 68 \, 0 \, 144 \, 69 \, 0 \, 144 \, 70 \, 0 \,
144 \, 71 \, 0;
#X text 63 55 feedback for FADER CTRL section;
#X floatatom 17 235 5 0 0 0 - - -, f 5;
#X obj 17 300 t f b;
#X text 64 256 feedback for send/plugin selection;
#X obj 17 213 r sn;
#X obj 17 322 + 87;
#X msg 89 366 144 \, 87 \, 0 \, 144 \, 88 \, 0 \, 144 \, 89 \, 0;
#X obj 266 50 s fader-ctrl;
#X obj 266 28 - 1;
#X obj 196 290 s send-select;
#X obj 16 184 midiout 3;
#X obj 17 388 midiout 3;
#X obj 17 256 t f f;
#X obj 17 278 mod 3;
#X obj 56 278 div 3;
#X obj 17 344 pack f f;
#X obj 56 300 + 1;
#X msg 17 366 144 \, \$1 \, \$2;
#X obj 196 312 s send-shift;
#X msg 170 137 \$1 1;
#X obj 170 115 + 67;
#X obj 116 90 r sh;
#X obj 71 137 pack f f;
#X msg 16 162 144 \, \$1 \, \$2;
#X obj 116 112 + 1;
#X obj 266 80 unpack f f;
#X obj 323 103 > 1;
#X obj 323 125 s fader-shift;
#X obj 186 205 closebang;
#X obj 301 249 r select;
#X floatatom 301 271 5 0 0 0 - - -, f 5;
#X msg 301 316 144 \, 86 \, \$1;
#X obj 301 338 midiout 3;
#X text 299 228 feedback for SELECT;
#X msg 186 227 0;
#X msg 71 115 71;
#X msg 43 115 69;
#X msg 16 115 68;
#X obj 16 76 sel 1 2 4;
#X text 436 49 note feedback (5x8 grid);
#X obj 438 71 r note-light;
#X obj 438 384 midiout 3;
#X msg 438 361 144 \, \$1 \, \$2;
#X obj 438 340 pack f f;
#X obj 438 93 t a a;
#X floatatom 438 115 5 0 0 0 - - -, f 5;
#X obj 465 151 unpack f f;
#X obj 540 151 r offs;
#X obj 465 173 +;
#X floatatom 465 195 5 0 0 0 - - -, f 5;
#X obj 522 173 > 0;
#X obj 465 217 moses 36;
#X obj 510 240 moses 48;
#X msg 510 262 5;
#X msg 465 262 3;
#X msg 555 262 1;
#X obj 465 284 *;
#X floatatom 465 306 5 0 0 0 - - -, f 5;
#X obj 363 249 r sh;
#X obj 363 271 + 1;
#X obj 301 292 *;
#X connect 0 0 1 0;
#X connect 1 0 2 0;
#X connect 1 0 12 0;
#X connect 2 0 42 0;
#X connect 2 1 3 0;
#X connect 3 0 14 0;
#X connect 5 0 16 0;
#X connect 6 0 9 0;
#X connect 6 1 10 0;
#X connect 8 0 5 0;
#X connect 9 0 19 0;
#X connect 10 0 15 0;
#X connect 12 0 11 0;
#X connect 16 0 17 0;
#X connect 16 1 18 0;
#X connect 17 0 6 0;
#X connect 17 0 13 0;
#X connect 18 0 20 0;
#X connect 18 0 22 0;
#X connect 19 0 21 0;
#X connect 20 0 19 1;
#X connect 21 0 15 0;
#X connect 23 0 27 0;
#X connect 24 0 23 0;
#X connect 25 0 28 0;
#X connect 26 0 27 0;
#X connect 26 0 29 0;
#X connect 27 0 14 0;
#X connect 28 0 26 1;
#X connect 29 1 30 0;
#X connect 30 0 31 0;
#X connect 32 0 10 0;
#X connect 32 0 3 0;
#X connect 32 0 38 0;
#X connect 33 0 34 0;
#X connect 34 0 64 0;
#X connect 35 0 36 0;
#X connect 38 0 34 0;
#X connect 39 0 26 0;
#X connect 40 0 26 0;
#X connect 41 0 26 0;
#X connect 42 0 41 0;
#X connect 42 1 40 0;
#X connect 42 2 39 0;
#X connect 42 3 24 0;
#X connect 44 0 48 0;
#X connect 46 0 45 0;
#X connect 47 0 46 0;
#X connect 48 0 49 0;
#X connect 48 1 50 0;
#X connect 49 0 47 0;
#X connect 50 0 52 0;
#X connect 50 1 54 0;
#X connect 51 0 52 1;
#X connect 52 0 53 0;
#X connect 53 0 55 0;
#X connect 54 0 60 1;
#X connect 55 0 58 0;
#X connect 55 1 56 0;
#X connect 56 0 57 0;
#X connect 56 1 59 0;
#X connect 57 0 60 0;
#X connect 58 0 60 0;
#X connect 59 0 60 0;
#X connect 60 0 61 0;
#X connect 61 0 47 1;
#X connect 62 0 63 0;
#X connect 63 0 64 1;
#X connect 63 0 30 0;
#X connect 64 0 35 0;
#X restore 17 116 pd internal-feedback;
#N canvas 2210 231 669 813.094 smr 0;
#X obj 14 80 inlet;
#X obj 47 130 unpack f f;
#X obj 14 176 spigot;
#X obj 47 152 expr $f1<24 && $f2>0;
#X obj 41 222 tabread smr;
#X obj 41 244 == 0;
#X obj 14 198 t f f;
#X obj 14 302 pack f f;
#X obj 14 324 t a a;
#X obj 14 346 outlet;
#X obj 41 266 * 127;
#X obj 73 393 midiout 2;
#X msg 73 371 144 \, \$1 \, 127;
#X obj 233 293 spigot;
#X obj 266 269 tgl 15 0 empty debug empty 17 7 0 10 -262144 -1 -1 1
1;
#X text 12 23 Using an array for storage \, this subpatch implements
a bank of toggles for the solo/mute/rec controls (pads in the lower
3 rows a.k.a. notes 0-23).;
#X obj 14 102 t f a;
#X msg 233 245 \$1 \$2 17;
#X obj 233 318 print E PD->DAW;
#X connect 0 0 16 0;
#X connect 1 0 3 0;
#X connect 1 1 3 1;
#X connect 2 0 6 0;
#X connect 3 0 2 1;
#X connect 4 0 5 0;
#X connect 5 0 10 0;
#X connect 6 0 7 0;
#X connect 6 1 4 0;
#X connect 7 0 8 0;
#X connect 8 0 9 0;
#X connect 8 1 12 0;
#X connect 8 1 17 0;
#X connect 10 0 7 1;
#X connect 12 0 11 0;
#X connect 13 0 18 0;
#X connect 14 0 13 1;
#X connect 16 0 2 0;
#X connect 16 1 1 0;
#X connect 17 0 13 0;
#X restore 68 59 pd smr;
#X obj 17 255 tgl 15 1 debug empty debug 17 7 0 10 -262144 -1 -1 1
1;
#X obj 220 130 vsl 15 64 0 127 0 0 empty f1 empty 0 -9 0 10 -262144
-1 -1 5606 1;
#X obj 240 130 vsl 15 64 0 127 0 0 empty f2 empty 0 -9 0 10 -262144
-1 -1 0 1;
#X obj 260 130 vsl 15 64 0 127 0 0 empty f3 empty 0 -9 0 10 -262144
-1 -1 0 1;
#X obj 280 130 vsl 15 64 0 127 0 0 empty f4 empty 0 -9 0 10 -262144
-1 -1 0 1;
#X obj 300 130 vsl 15 64 0 127 0 0 empty f5 empty 0 -9 0 10 -262144
-1 -1 0 1;
#X obj 320 130 vsl 15 64 0 127 0 0 empty f6 empty 0 -9 0 10 -262144
-1 -1 0 1;
#X obj 340 130 vsl 15 64 0 127 0 0 empty f7 empty 0 -9 0 10 -262144
-1 -1 0 1;
#X obj 360 130 vsl 15 64 0 127 0 0 empty f8 empty 0 -9 0 10 -262144
-1 -1 0 1;
#X obj 391 130 vsl 15 64 0 127 0 0 empty master empty 0 -9 0 10 -262144
-1 -1 0 1;
#X obj 353 99 hradio 15 0 0 4 empty fader-ctrl empty 0 -8 0 10 -262144
-1 -1 0;
#X obj 423 44 vradio 15 0 0 3 empty send-select empty 0 -8 0 10 -262144
-1 -1 0;
#X obj 17 187 hsl 128 15 -12 12 0 1 empty empty transpose 39 -8 0 10
-262144 -1 -1 6350 1;
#X floatatom 17 229 5 0 0 0 - - offs, f 5;
#X msg 17 145 0;
#X obj 17 207 int;
#X msg 47 145 -12;
#X msg 77 145 12;
#X obj 423 23 tgl 15 0 empty send-shift empty 17 7 0 10 -262144 -1
-1 0 1;
#X obj 423 99 tgl 15 0 empty fader-shift empty 17 7 0 10 -262144 -1
-1 0 1;
#X obj 220 206 vsl 15 64 0 127 0 0 empty f9 empty 0 -9 0 10 -262144
-1 -1 0 1;
#X obj 240 206 vsl 15 64 0 127 0 0 empty f10 empty 0 -9 0 10 -262144
-1 -1 0 1;
#X obj 260 206 vsl 15 64 0 127 0 0 empty f11 empty 0 -9 0 10 -262144
-1 -1 0 1;
#X obj 280 206 vsl 15 64 0 127 0 0 empty f12 empty 0 -9 0 10 -262144
-1 -1 0 1;
#X obj 300 206 vsl 15 64 0 127 0 0 empty f13 empty 0 -9 0 10 -262144
-1 -1 0 1;
#X obj 320 206 vsl 15 64 0 127 0 0 empty f14 empty 0 -9 0 10 -262144
-1 -1 0 1;
#X obj 340 206 vsl 15 64 0 127 0 0 empty f15 empty 0 -9 0 10 -262144
-1 -1 0 1;
#X obj 360 206 vsl 15 64 0 127 0 0 empty f16 empty 0 -9 0 10 -262144
-1 -1 0 1;
#X text 187 155 1-8;
#X text 185 230 9-16;
#X text 412 156 master;
#X floatatom 122 255 5 0 0 0 - chan -, f 5;
#X text 76 239 fader ctrl channel;
#X obj 220 99 tgl 15 0 empty select SELECT 17 7 0 10 -262144 -1 -1
0 1;
#X obj 391 206 vsl 15 64 0 127 0 0 empty master2 empty 0 -9 0 10 -262144
-1 -1 0 1;
#X text 412 232 2nd bank;
#X obj 415 197 bng 15 250 50 0 reset-store empty reset 17 7 0 10 -262144
-1 -1;
#X connect 4 0 6 0;
#X connect 4 1 8 0;
#X connect 8 0 6 0;
#X connect 21 0 24 0;
#X connect 23 0 21 0;
#X connect 24 0 22 0;
#X connect 25 0 21 0;
#X connect 26 0 21 0;
